<?xml version="1.0" encoding="UTF-8"?>
<svg xmlns="http://www.w3.org/2000/svg" xmlns:xlink="http://www.w3.org/1999/xlink" width="150pt" height="150pt" viewBox="0 0 150 150" version="1.1">
<defs>
<clipPath id="clip1">
  <path d="M 5 5 L 145 5 L 145 115 L 5 115 Z M 5 5 "/>
</clipPath>
</defs>
<g id="surface1">
<path style="fill:none;stroke-width:10;stroke-linecap:butt;stroke-linejoin:miter;stroke:rgb(0%,0%,0%);stroke-opacity:1;stroke-miterlimit:10;" d="M 50 750 L 1450 750 M -1000 50 L -1000 1450 " transform="matrix(0.1,0,0,-0.1,0,150)"/>
<path style="fill:none;stroke-width:10;stroke-linecap:butt;stroke-linejoin:miter;stroke:rgb(80.076599%,80.076599%,80.076599%);stroke-opacity:1;stroke-miterlimit:10;" d="M 50 50 L 1450 50 L 1450 1450 L 50 1450 Z M 50 50 " transform="matrix(0.1,0,0,-0.1,0,150)"/>
<g clip-path="url(#clip1)" clip-rule="nonzero">
<path style="fill:none;stroke-width:15;stroke-linecap:butt;stroke-linejoin:miter;stroke:rgb(0%,0%,50%);stroke-opacity:1;stroke-miterlimit:10;" d="M 50 598.789062 L 63.984375 595.820312 L 78.007812 592.929688 L 91.992188 590.117188 L 106.015625 587.421875 L 120 584.84375 L 133.984375 582.382812 L 148.007812 580.039062 L 161.992188 577.851562 L 176.015625 575.820312 L 190 573.90625 L 203.984375 572.1875 L 218.007812 570.625 L 231.992188 569.257812 L 246.015625 568.085938 L 260 567.109375 L 273.984375 566.367188 L 288.007812 565.820312 L 301.992188 565.507812 L 316.015625 565.429688 L 330 565.625 L 343.984375 566.09375 L 358.007812 566.835938 L 371.992188 567.851562 L 386.015625 569.179688 L 400 570.820312 L 413.984375 572.773438 L 428.007812 575.039062 L 441.992188 577.695312 L 456.015625 580.664062 L 470 584.0625 L 483.984375 587.8125 L 498.007812 591.953125 L 511.992188 596.484375 L 526.015625 601.484375 L 540 606.875 L 553.984375 612.773438 L 568.007812 619.0625 L 581.992188 625.898438 L 596.015625 633.203125 L 610 640.976562 L 623.984375 649.296875 L 638.007812 658.164062 L 651.992188 667.578125 L 666.015625 677.539062 L 680 688.085938 L 693.984375 699.21875 L 708.007812 710.9375 L 721.992188 723.320312 L 736.015625 736.328125 L 750 750 L 763.984375 764.335938 L 778.007812 779.375 L 791.992188 795.117188 L 806.015625 811.5625 L 820 828.75 L 833.984375 846.679688 L 848.007812 865.390625 L 861.992188 884.921875 L 876.015625 905.234375 L 890 926.367188 L 903.984375 948.359375 L 918.007812 971.171875 L 931.992188 994.882812 L 946.015625 1019.492188 L 960 1045.039062 L 973.984375 1071.484375 L 988.007812 1098.90625 L 1001.992188 1127.304688 L 1016.015625 1156.679688 L 1030 1187.03125 L 1043.984375 1218.476562 L 1058.007812 1250.9375 L 1071.992188 1284.453125 L 1086.015625 1319.0625 L 1100 1354.804688 L 1113.984375 1391.640625 L 1128.007812 1429.648438 L 1141.992188 1468.828125 L 1156.015625 1509.21875 L 1170 1550.78125 L 1183.984375 1593.59375 L 1198.007812 1637.65625 L 1211.992188 1683.007812 L 1226.015625 1729.648438 L 1240 1777.617188 L 1253.984375 1826.914062 L 1268.007812 1877.578125 L 1281.992188 1929.648438 L 1296.015625 1983.085938 L 1310 2037.96875 L 1323.984375 2094.335938 L 1338.007812 2152.148438 L 1351.992188 2211.484375 L 1366.015625 2272.34375 L 1380 2334.726562 L 1393.984375 2398.710938 L 1408.007812 2464.296875 L 1421.992188 2531.445312 L 1436.015625 2600.3125 L 1450 2670.78125 " transform="matrix(0.1,0,0,-0.1,0,150)"/>
</g>
<path style=" stroke:none;fill-rule:nonzero;fill:rgb(100%,0%,100%);fill-opacity:1;" d="M 77 75 C 77 73.894531 76.105469 73 75 73 C 73.894531 73 73 73.894531 73 75 C 73 76.105469 73.894531 77 75 77 C 76.105469 77 77 76.105469 77 75 "/>
<path style="fill:none;stroke-width:10;stroke-linecap:butt;stroke-linejoin:miter;stroke:rgb(0%,0%,0%);stroke-opacity:1;stroke-miterlimit:10;" d="M 770 750 C 770 761.054688 761.054688 770 750 770 C 738.945312 770 730 761.054688 730 750 C 730 738.945312 738.945312 730 750 730 C 761.054688 730 770 738.945312 770 750 Z M 770 750 " transform="matrix(0.1,0,0,-0.1,0,150)"/>
</g>
</svg>
