<?xml version="1.0" encoding="UTF-8"?>
<svg xmlns="http://www.w3.org/2000/svg" xmlns:xlink="http://www.w3.org/1999/xlink" width="150pt" height="190pt" viewBox="0 0 150 190" version="1.1">
<g id="surface1">
<path style="fill:none;stroke-width:10;stroke-linecap:butt;stroke-linejoin:miter;stroke:rgb(59.959412%,59.959412%,59.959412%);stroke-opacity:1;stroke-miterlimit:10;" d="M 1213.828125 1666.835938 L 1191.835938 1548.085938 " transform="matrix(0.1,0,0,-0.1,0,190)"/>
<path style="fill:none;stroke-width:10;stroke-linecap:butt;stroke-linejoin:miter;stroke:rgb(59.959412%,59.959412%,59.959412%);stroke-opacity:1;stroke-miterlimit:10;" d="M 1183.046875 1471.132812 L 1183.046875 1356.757812 " transform="matrix(0.1,0,0,-0.1,0,190)"/>
<path style="fill:none;stroke-width:10;stroke-linecap:butt;stroke-linejoin:miter;stroke:rgb(80.076599%,19.993591%,100%);stroke-opacity:1;stroke-miterlimit:10;" d="M 1183.046875 1356.757812 C 1183.046875 1471.132812 1191.835938 1548.085938 1213.828125 1666.835938 " transform="matrix(0.1,0,0,-0.1,0,190)"/>
<path style="fill-rule:nonzero;fill:rgb(59.959412%,19.993591%,100%);fill-opacity:1;stroke-width:10;stroke-linecap:butt;stroke-linejoin:miter;stroke:rgb(0%,0%,0%);stroke-opacity:1;stroke-miterlimit:10;" d="M 1193.828125 1646.835938 L 1233.828125 1646.835938 L 1233.828125 1686.835938 L 1193.828125 1686.835938 Z M 1193.828125 1646.835938 " transform="matrix(0.1,0,0,-0.1,0,190)"/>
<path style="fill-rule:nonzero;fill:rgb(59.959412%,19.993591%,100%);fill-opacity:1;stroke-width:10;stroke-linecap:butt;stroke-linejoin:miter;stroke:rgb(0%,0%,0%);stroke-opacity:1;stroke-miterlimit:10;" d="M 1171.835938 1528.085938 L 1211.835938 1528.085938 L 1211.835938 1568.085938 L 1171.835938 1568.085938 Z M 1171.835938 1528.085938 " transform="matrix(0.1,0,0,-0.1,0,190)"/>
<path style="fill-rule:nonzero;fill:rgb(59.959412%,19.993591%,100%);fill-opacity:1;stroke-width:10;stroke-linecap:butt;stroke-linejoin:miter;stroke:rgb(0%,0%,0%);stroke-opacity:1;stroke-miterlimit:10;" d="M 1163.046875 1451.132812 L 1203.046875 1451.132812 L 1203.046875 1491.132812 L 1163.046875 1491.132812 Z M 1163.046875 1451.132812 " transform="matrix(0.1,0,0,-0.1,0,190)"/>
<path style="fill-rule:nonzero;fill:rgb(59.959412%,19.993591%,100%);fill-opacity:1;stroke-width:10;stroke-linecap:butt;stroke-linejoin:miter;stroke:rgb(0%,0%,0%);stroke-opacity:1;stroke-miterlimit:10;" d="M 1163.046875 1336.757812 L 1203.046875 1336.757812 L 1203.046875 1376.757812 L 1163.046875 1376.757812 Z M 1163.046875 1336.757812 " transform="matrix(0.1,0,0,-0.1,0,190)"/>
<path style="fill:none;stroke-width:10;stroke-linecap:butt;stroke-linejoin:miter;stroke:rgb(59.959412%,59.959412%,59.959412%);stroke-opacity:1;stroke-miterlimit:10;" d="M 817.96875 1759.21875 L 941.132812 1759.21875 " transform="matrix(0.1,0,0,-0.1,0,190)"/>
<path style="fill:none;stroke-width:10;stroke-linecap:butt;stroke-linejoin:miter;stroke:rgb(59.959412%,59.959412%,59.959412%);stroke-opacity:1;stroke-miterlimit:10;" d="M 1035.703125 1737.226562 L 1213.828125 1666.835938 " transform="matrix(0.1,0,0,-0.1,0,190)"/>
<path style="fill:none;stroke-width:10;stroke-linecap:butt;stroke-linejoin:miter;stroke:rgb(80.076599%,19.993591%,100%);stroke-opacity:1;stroke-miterlimit:10;" d="M 1213.828125 1666.835938 C 1035.703125 1737.226562 941.132812 1759.21875 817.96875 1759.21875 " transform="matrix(0.1,0,0,-0.1,0,190)"/>
<path style="fill-rule:nonzero;fill:rgb(59.959412%,19.993591%,100%);fill-opacity:1;stroke-width:10;stroke-linecap:butt;stroke-linejoin:miter;stroke:rgb(0%,0%,0%);stroke-opacity:1;stroke-miterlimit:10;" d="M 797.96875 1739.21875 L 837.96875 1739.21875 L 837.96875 1779.21875 L 797.96875 1779.21875 Z M 797.96875 1739.21875 " transform="matrix(0.1,0,0,-0.1,0,190)"/>
<path style="fill-rule:nonzero;fill:rgb(59.959412%,19.993591%,100%);fill-opacity:1;stroke-width:10;stroke-linecap:butt;stroke-linejoin:miter;stroke:rgb(0%,0%,0%);stroke-opacity:1;stroke-miterlimit:10;" d="M 921.132812 1739.21875 L 961.132812 1739.21875 L 961.132812 1779.21875 L 921.132812 1779.21875 Z M 921.132812 1739.21875 " transform="matrix(0.1,0,0,-0.1,0,190)"/>
<path style="fill-rule:nonzero;fill:rgb(59.959412%,19.993591%,100%);fill-opacity:1;stroke-width:10;stroke-linecap:butt;stroke-linejoin:miter;stroke:rgb(0%,0%,0%);stroke-opacity:1;stroke-miterlimit:10;" d="M 1015.703125 1717.226562 L 1055.703125 1717.226562 L 1055.703125 1757.226562 L 1015.703125 1757.226562 Z M 1015.703125 1717.226562 " transform="matrix(0.1,0,0,-0.1,0,190)"/>
<path style="fill-rule:nonzero;fill:rgb(59.959412%,19.993591%,100%);fill-opacity:1;stroke-width:10;stroke-linecap:butt;stroke-linejoin:miter;stroke:rgb(0%,0%,0%);stroke-opacity:1;stroke-miterlimit:10;" d="M 1193.828125 1646.835938 L 1233.828125 1646.835938 L 1233.828125 1686.835938 L 1193.828125 1686.835938 Z M 1193.828125 1646.835938 " transform="matrix(0.1,0,0,-0.1,0,190)"/>
<path style="fill:none;stroke-width:10;stroke-linecap:butt;stroke-linejoin:miter;stroke:rgb(59.959412%,59.959412%,59.959412%);stroke-opacity:1;stroke-miterlimit:10;" d="M 252.773438 1264.414062 L 252.773438 1552.460938 " transform="matrix(0.1,0,0,-0.1,0,190)"/>
<path style="fill:none;stroke-width:10;stroke-linecap:butt;stroke-linejoin:miter;stroke:rgb(59.959412%,59.959412%,59.959412%);stroke-opacity:1;stroke-miterlimit:10;" d="M 490.3125 1759.21875 L 817.96875 1759.21875 " transform="matrix(0.1,0,0,-0.1,0,190)"/>
<path style="fill:none;stroke-width:10;stroke-linecap:butt;stroke-linejoin:miter;stroke:rgb(80.076599%,19.993591%,100%);stroke-opacity:1;stroke-miterlimit:10;" d="M 817.96875 1759.21875 C 490.3125 1759.21875 252.773438 1552.460938 252.773438 1264.414062 " transform="matrix(0.1,0,0,-0.1,0,190)"/>
<path style="fill-rule:nonzero;fill:rgb(59.959412%,19.993591%,100%);fill-opacity:1;stroke-width:10;stroke-linecap:butt;stroke-linejoin:miter;stroke:rgb(0%,0%,0%);stroke-opacity:1;stroke-miterlimit:10;" d="M 232.773438 1244.414062 L 272.773438 1244.414062 L 272.773438 1284.414062 L 232.773438 1284.414062 Z M 232.773438 1244.414062 " transform="matrix(0.1,0,0,-0.1,0,190)"/>
<path style="fill-rule:nonzero;fill:rgb(59.959412%,19.993591%,100%);fill-opacity:1;stroke-width:10;stroke-linecap:butt;stroke-linejoin:miter;stroke:rgb(0%,0%,0%);stroke-opacity:1;stroke-miterlimit:10;" d="M 232.773438 1532.460938 L 272.773438 1532.460938 L 272.773438 1572.460938 L 232.773438 1572.460938 Z M 232.773438 1532.460938 " transform="matrix(0.1,0,0,-0.1,0,190)"/>
<path style="fill-rule:nonzero;fill:rgb(59.959412%,19.993591%,100%);fill-opacity:1;stroke-width:10;stroke-linecap:butt;stroke-linejoin:miter;stroke:rgb(0%,0%,0%);stroke-opacity:1;stroke-miterlimit:10;" d="M 470.3125 1739.21875 L 510.3125 1739.21875 L 510.3125 1779.21875 L 470.3125 1779.21875 Z M 470.3125 1739.21875 " transform="matrix(0.1,0,0,-0.1,0,190)"/>
<path style="fill-rule:nonzero;fill:rgb(59.959412%,19.993591%,100%);fill-opacity:1;stroke-width:10;stroke-linecap:butt;stroke-linejoin:miter;stroke:rgb(0%,0%,0%);stroke-opacity:1;stroke-miterlimit:10;" d="M 797.96875 1739.21875 L 837.96875 1739.21875 L 837.96875 1779.21875 L 797.96875 1779.21875 Z M 797.96875 1739.21875 " transform="matrix(0.1,0,0,-0.1,0,190)"/>
<path style="fill:none;stroke-width:10;stroke-linecap:butt;stroke-linejoin:miter;stroke:rgb(59.959412%,59.959412%,59.959412%);stroke-opacity:1;stroke-miterlimit:10;" d="M 342.96875 1022.460938 L 281.367188 1079.6875 " transform="matrix(0.1,0,0,-0.1,0,190)"/>
<path style="fill:none;stroke-width:10;stroke-linecap:butt;stroke-linejoin:miter;stroke:rgb(59.959412%,59.959412%,59.959412%);stroke-opacity:1;stroke-miterlimit:10;" d="M 252.773438 1156.640625 L 252.773438 1264.414062 " transform="matrix(0.1,0,0,-0.1,0,190)"/>
<path style="fill:none;stroke-width:10;stroke-linecap:butt;stroke-linejoin:miter;stroke:rgb(80.076599%,19.993591%,100%);stroke-opacity:1;stroke-miterlimit:10;" d="M 252.773438 1264.414062 C 252.773438 1156.640625 281.367188 1079.6875 342.96875 1022.460938 " transform="matrix(0.1,0,0,-0.1,0,190)"/>
<path style="fill-rule:nonzero;fill:rgb(59.959412%,19.993591%,100%);fill-opacity:1;stroke-width:10;stroke-linecap:butt;stroke-linejoin:miter;stroke:rgb(0%,0%,0%);stroke-opacity:1;stroke-miterlimit:10;" d="M 322.96875 1002.460938 L 362.96875 1002.460938 L 362.96875 1042.460938 L 322.96875 1042.460938 Z M 322.96875 1002.460938 " transform="matrix(0.1,0,0,-0.1,0,190)"/>
<path style="fill-rule:nonzero;fill:rgb(59.959412%,19.993591%,100%);fill-opacity:1;stroke-width:10;stroke-linecap:butt;stroke-linejoin:miter;stroke:rgb(0%,0%,0%);stroke-opacity:1;stroke-miterlimit:10;" d="M 261.367188 1059.6875 L 301.367188 1059.6875 L 301.367188 1099.6875 L 261.367188 1099.6875 Z M 261.367188 1059.6875 " transform="matrix(0.1,0,0,-0.1,0,190)"/>
<path style="fill-rule:nonzero;fill:rgb(59.959412%,19.993591%,100%);fill-opacity:1;stroke-width:10;stroke-linecap:butt;stroke-linejoin:miter;stroke:rgb(0%,0%,0%);stroke-opacity:1;stroke-miterlimit:10;" d="M 232.773438 1136.640625 L 272.773438 1136.640625 L 272.773438 1176.640625 L 232.773438 1176.640625 Z M 232.773438 1136.640625 " transform="matrix(0.1,0,0,-0.1,0,190)"/>
<path style="fill-rule:nonzero;fill:rgb(59.959412%,19.993591%,100%);fill-opacity:1;stroke-width:10;stroke-linecap:butt;stroke-linejoin:miter;stroke:rgb(0%,0%,0%);stroke-opacity:1;stroke-miterlimit:10;" d="M 232.773438 1244.414062 L 272.773438 1244.414062 L 272.773438 1284.414062 L 232.773438 1284.414062 Z M 232.773438 1244.414062 " transform="matrix(0.1,0,0,-0.1,0,190)"/>
<path style="fill:none;stroke-width:10;stroke-linecap:butt;stroke-linejoin:miter;stroke:rgb(59.959412%,59.959412%,59.959412%);stroke-opacity:1;stroke-miterlimit:10;" d="M 734.414062 886.132812 L 516.679688 916.914062 " transform="matrix(0.1,0,0,-0.1,0,190)"/>
<path style="fill:none;stroke-width:10;stroke-linecap:butt;stroke-linejoin:miter;stroke:rgb(59.959412%,59.959412%,59.959412%);stroke-opacity:1;stroke-miterlimit:10;" d="M 417.734375 949.921875 L 342.96875 1022.460938 " transform="matrix(0.1,0,0,-0.1,0,190)"/>
<path style="fill:none;stroke-width:10;stroke-linecap:butt;stroke-linejoin:miter;stroke:rgb(80.076599%,19.993591%,100%);stroke-opacity:1;stroke-miterlimit:10;" d="M 342.96875 1022.460938 C 417.734375 949.921875 516.679688 916.914062 734.414062 886.132812 " transform="matrix(0.1,0,0,-0.1,0,190)"/>
<path style="fill-rule:nonzero;fill:rgb(59.959412%,19.993591%,100%);fill-opacity:1;stroke-width:10;stroke-linecap:butt;stroke-linejoin:miter;stroke:rgb(0%,0%,0%);stroke-opacity:1;stroke-miterlimit:10;" d="M 714.414062 866.132812 L 754.414062 866.132812 L 754.414062 906.132812 L 714.414062 906.132812 Z M 714.414062 866.132812 " transform="matrix(0.1,0,0,-0.1,0,190)"/>
<path style="fill-rule:nonzero;fill:rgb(59.959412%,19.993591%,100%);fill-opacity:1;stroke-width:10;stroke-linecap:butt;stroke-linejoin:miter;stroke:rgb(0%,0%,0%);stroke-opacity:1;stroke-miterlimit:10;" d="M 496.679688 896.914062 L 536.679688 896.914062 L 536.679688 936.914062 L 496.679688 936.914062 Z M 496.679688 896.914062 " transform="matrix(0.1,0,0,-0.1,0,190)"/>
<path style="fill-rule:nonzero;fill:rgb(59.959412%,19.993591%,100%);fill-opacity:1;stroke-width:10;stroke-linecap:butt;stroke-linejoin:miter;stroke:rgb(0%,0%,0%);stroke-opacity:1;stroke-miterlimit:10;" d="M 397.734375 929.921875 L 437.734375 929.921875 L 437.734375 969.921875 L 397.734375 969.921875 Z M 397.734375 929.921875 " transform="matrix(0.1,0,0,-0.1,0,190)"/>
<path style="fill-rule:nonzero;fill:rgb(59.959412%,19.993591%,100%);fill-opacity:1;stroke-width:10;stroke-linecap:butt;stroke-linejoin:miter;stroke:rgb(0%,0%,0%);stroke-opacity:1;stroke-miterlimit:10;" d="M 322.96875 1002.460938 L 362.96875 1002.460938 L 362.96875 1042.460938 L 322.96875 1042.460938 Z M 322.96875 1002.460938 " transform="matrix(0.1,0,0,-0.1,0,190)"/>
<path style="fill:none;stroke-width:10;stroke-linecap:butt;stroke-linejoin:miter;stroke:rgb(59.959412%,59.959412%,59.959412%);stroke-opacity:1;stroke-miterlimit:10;" d="M 1035.703125 789.375 L 976.328125 839.960938 " transform="matrix(0.1,0,0,-0.1,0,190)"/>
<path style="fill:none;stroke-width:10;stroke-linecap:butt;stroke-linejoin:miter;stroke:rgb(59.959412%,59.959412%,59.959412%);stroke-opacity:1;stroke-miterlimit:10;" d="M 901.523438 864.140625 L 734.414062 886.132812 " transform="matrix(0.1,0,0,-0.1,0,190)"/>
<path style="fill:none;stroke-width:10;stroke-linecap:butt;stroke-linejoin:miter;stroke:rgb(80.076599%,19.993591%,100%);stroke-opacity:1;stroke-miterlimit:10;" d="M 734.414062 886.132812 C 901.523438 864.140625 976.328125 839.960938 1035.703125 789.375 " transform="matrix(0.1,0,0,-0.1,0,190)"/>
<path style="fill-rule:nonzero;fill:rgb(59.959412%,19.993591%,100%);fill-opacity:1;stroke-width:10;stroke-linecap:butt;stroke-linejoin:miter;stroke:rgb(0%,0%,0%);stroke-opacity:1;stroke-miterlimit:10;" d="M 1015.703125 769.375 L 1055.703125 769.375 L 1055.703125 809.375 L 1015.703125 809.375 Z M 1015.703125 769.375 " transform="matrix(0.1,0,0,-0.1,0,190)"/>
<path style="fill-rule:nonzero;fill:rgb(59.959412%,19.993591%,100%);fill-opacity:1;stroke-width:10;stroke-linecap:butt;stroke-linejoin:miter;stroke:rgb(0%,0%,0%);stroke-opacity:1;stroke-miterlimit:10;" d="M 956.328125 819.960938 L 996.328125 819.960938 L 996.328125 859.960938 L 956.328125 859.960938 Z M 956.328125 819.960938 " transform="matrix(0.1,0,0,-0.1,0,190)"/>
<path style="fill-rule:nonzero;fill:rgb(59.959412%,19.993591%,100%);fill-opacity:1;stroke-width:10;stroke-linecap:butt;stroke-linejoin:miter;stroke:rgb(0%,0%,0%);stroke-opacity:1;stroke-miterlimit:10;" d="M 881.523438 844.140625 L 921.523438 844.140625 L 921.523438 884.140625 L 881.523438 884.140625 Z M 881.523438 844.140625 " transform="matrix(0.1,0,0,-0.1,0,190)"/>
<path style="fill-rule:nonzero;fill:rgb(59.959412%,19.993591%,100%);fill-opacity:1;stroke-width:10;stroke-linecap:butt;stroke-linejoin:miter;stroke:rgb(0%,0%,0%);stroke-opacity:1;stroke-miterlimit:10;" d="M 714.414062 866.132812 L 754.414062 866.132812 L 754.414062 906.132812 L 714.414062 906.132812 Z M 714.414062 866.132812 " transform="matrix(0.1,0,0,-0.1,0,190)"/>
<path style="fill:none;stroke-width:10;stroke-linecap:butt;stroke-linejoin:miter;stroke:rgb(59.959412%,59.959412%,59.959412%);stroke-opacity:1;stroke-miterlimit:10;" d="M 1121.445312 593.671875 L 1121.445312 677.226562 " transform="matrix(0.1,0,0,-0.1,0,190)"/>
<path style="fill:none;stroke-width:10;stroke-linecap:butt;stroke-linejoin:miter;stroke:rgb(59.959412%,59.959412%,59.959412%);stroke-opacity:1;stroke-miterlimit:10;" d="M 1092.851562 743.203125 L 1035.703125 789.375 " transform="matrix(0.1,0,0,-0.1,0,190)"/>
<path style="fill:none;stroke-width:10;stroke-linecap:butt;stroke-linejoin:miter;stroke:rgb(80.076599%,19.993591%,100%);stroke-opacity:1;stroke-miterlimit:10;" d="M 1035.703125 789.375 C 1092.851562 743.203125 1121.445312 677.226562 1121.445312 593.671875 " transform="matrix(0.1,0,0,-0.1,0,190)"/>
<path style="fill-rule:nonzero;fill:rgb(59.959412%,19.993591%,100%);fill-opacity:1;stroke-width:10;stroke-linecap:butt;stroke-linejoin:miter;stroke:rgb(0%,0%,0%);stroke-opacity:1;stroke-miterlimit:10;" d="M 1101.445312 573.671875 L 1141.445312 573.671875 L 1141.445312 613.671875 L 1101.445312 613.671875 Z M 1101.445312 573.671875 " transform="matrix(0.1,0,0,-0.1,0,190)"/>
<path style="fill-rule:nonzero;fill:rgb(59.959412%,19.993591%,100%);fill-opacity:1;stroke-width:10;stroke-linecap:butt;stroke-linejoin:miter;stroke:rgb(0%,0%,0%);stroke-opacity:1;stroke-miterlimit:10;" d="M 1101.445312 657.226562 L 1141.445312 657.226562 L 1141.445312 697.226562 L 1101.445312 697.226562 Z M 1101.445312 657.226562 " transform="matrix(0.1,0,0,-0.1,0,190)"/>
<path style="fill-rule:nonzero;fill:rgb(59.959412%,19.993591%,100%);fill-opacity:1;stroke-width:10;stroke-linecap:butt;stroke-linejoin:miter;stroke:rgb(0%,0%,0%);stroke-opacity:1;stroke-miterlimit:10;" d="M 1072.851562 723.203125 L 1112.851562 723.203125 L 1112.851562 763.203125 L 1072.851562 763.203125 Z M 1072.851562 723.203125 " transform="matrix(0.1,0,0,-0.1,0,190)"/>
<path style="fill-rule:nonzero;fill:rgb(59.959412%,19.993591%,100%);fill-opacity:1;stroke-width:10;stroke-linecap:butt;stroke-linejoin:miter;stroke:rgb(0%,0%,0%);stroke-opacity:1;stroke-miterlimit:10;" d="M 1015.703125 769.375 L 1055.703125 769.375 L 1055.703125 809.375 L 1015.703125 809.375 Z M 1015.703125 769.375 " transform="matrix(0.1,0,0,-0.1,0,190)"/>
<path style="fill:none;stroke-width:10;stroke-linecap:butt;stroke-linejoin:miter;stroke:rgb(59.959412%,59.959412%,59.959412%);stroke-opacity:1;stroke-miterlimit:10;" d="M 725.625 252.773438 L 956.523438 252.773438 " transform="matrix(0.1,0,0,-0.1,0,190)"/>
<path style="fill:none;stroke-width:10;stroke-linecap:butt;stroke-linejoin:miter;stroke:rgb(59.959412%,59.959412%,59.959412%);stroke-opacity:1;stroke-miterlimit:10;" d="M 1121.445312 395.703125 L 1121.445312 593.671875 " transform="matrix(0.1,0,0,-0.1,0,190)"/>
<path style="fill:none;stroke-width:10;stroke-linecap:butt;stroke-linejoin:miter;stroke:rgb(80.076599%,19.993591%,100%);stroke-opacity:1;stroke-miterlimit:10;" d="M 1121.445312 593.671875 C 1121.445312 395.703125 956.523438 252.773438 725.625 252.773438 " transform="matrix(0.1,0,0,-0.1,0,190)"/>
<path style="fill-rule:nonzero;fill:rgb(59.959412%,19.993591%,100%);fill-opacity:1;stroke-width:10;stroke-linecap:butt;stroke-linejoin:miter;stroke:rgb(0%,0%,0%);stroke-opacity:1;stroke-miterlimit:10;" d="M 705.625 232.773438 L 745.625 232.773438 L 745.625 272.773438 L 705.625 272.773438 Z M 705.625 232.773438 " transform="matrix(0.1,0,0,-0.1,0,190)"/>
<path style="fill-rule:nonzero;fill:rgb(59.959412%,19.993591%,100%);fill-opacity:1;stroke-width:10;stroke-linecap:butt;stroke-linejoin:miter;stroke:rgb(0%,0%,0%);stroke-opacity:1;stroke-miterlimit:10;" d="M 936.523438 232.773438 L 976.523438 232.773438 L 976.523438 272.773438 L 936.523438 272.773438 Z M 936.523438 232.773438 " transform="matrix(0.1,0,0,-0.1,0,190)"/>
<path style="fill-rule:nonzero;fill:rgb(59.959412%,19.993591%,100%);fill-opacity:1;stroke-width:10;stroke-linecap:butt;stroke-linejoin:miter;stroke:rgb(0%,0%,0%);stroke-opacity:1;stroke-miterlimit:10;" d="M 1101.445312 375.703125 L 1141.445312 375.703125 L 1141.445312 415.703125 L 1101.445312 415.703125 Z M 1101.445312 375.703125 " transform="matrix(0.1,0,0,-0.1,0,190)"/>
<path style="fill-rule:nonzero;fill:rgb(59.959412%,19.993591%,100%);fill-opacity:1;stroke-width:10;stroke-linecap:butt;stroke-linejoin:miter;stroke:rgb(0%,0%,0%);stroke-opacity:1;stroke-miterlimit:10;" d="M 1101.445312 573.671875 L 1141.445312 573.671875 L 1141.445312 613.671875 L 1101.445312 613.671875 Z M 1101.445312 573.671875 " transform="matrix(0.1,0,0,-0.1,0,190)"/>
<path style="fill:none;stroke-width:10;stroke-linecap:butt;stroke-linejoin:miter;stroke:rgb(59.959412%,59.959412%,59.959412%);stroke-opacity:1;stroke-miterlimit:10;" d="M 369.335938 428.710938 L 380.3125 336.328125 " transform="matrix(0.1,0,0,-0.1,0,190)"/>
<path style="fill:none;stroke-width:10;stroke-linecap:butt;stroke-linejoin:miter;stroke:rgb(59.959412%,59.959412%,59.959412%);stroke-opacity:1;stroke-miterlimit:10;" d="M 551.875 252.773438 L 725.625 252.773438 " transform="matrix(0.1,0,0,-0.1,0,190)"/>
<path style="fill:none;stroke-width:10;stroke-linecap:butt;stroke-linejoin:miter;stroke:rgb(80.076599%,19.993591%,100%);stroke-opacity:1;stroke-miterlimit:10;" d="M 725.625 252.773438 C 551.875 252.773438 380.3125 336.328125 369.335938 428.710938 " transform="matrix(0.1,0,0,-0.1,0,190)"/>
<path style="fill-rule:nonzero;fill:rgb(59.959412%,19.993591%,100%);fill-opacity:1;stroke-width:10;stroke-linecap:butt;stroke-linejoin:miter;stroke:rgb(0%,0%,0%);stroke-opacity:1;stroke-miterlimit:10;" d="M 349.335938 408.710938 L 389.335938 408.710938 L 389.335938 448.710938 L 349.335938 448.710938 Z M 349.335938 408.710938 " transform="matrix(0.1,0,0,-0.1,0,190)"/>
<path style="fill-rule:nonzero;fill:rgb(59.959412%,19.993591%,100%);fill-opacity:1;stroke-width:10;stroke-linecap:butt;stroke-linejoin:miter;stroke:rgb(0%,0%,0%);stroke-opacity:1;stroke-miterlimit:10;" d="M 360.3125 316.328125 L 400.3125 316.328125 L 400.3125 356.328125 L 360.3125 356.328125 Z M 360.3125 316.328125 " transform="matrix(0.1,0,0,-0.1,0,190)"/>
<path style="fill-rule:nonzero;fill:rgb(59.959412%,19.993591%,100%);fill-opacity:1;stroke-width:10;stroke-linecap:butt;stroke-linejoin:miter;stroke:rgb(0%,0%,0%);stroke-opacity:1;stroke-miterlimit:10;" d="M 531.875 232.773438 L 571.875 232.773438 L 571.875 272.773438 L 531.875 272.773438 Z M 531.875 232.773438 " transform="matrix(0.1,0,0,-0.1,0,190)"/>
<path style="fill-rule:nonzero;fill:rgb(59.959412%,19.993591%,100%);fill-opacity:1;stroke-width:10;stroke-linecap:butt;stroke-linejoin:miter;stroke:rgb(0%,0%,0%);stroke-opacity:1;stroke-miterlimit:10;" d="M 705.625 232.773438 L 745.625 232.773438 L 745.625 272.773438 L 705.625 272.773438 Z M 705.625 232.773438 " transform="matrix(0.1,0,0,-0.1,0,190)"/>
<path style="fill:none;stroke-width:10;stroke-linecap:butt;stroke-linejoin:miter;stroke:rgb(59.959412%,19.993591%,80.076599%);stroke-opacity:1;stroke-miterlimit:10;" d="M 369.335938 428.710938 L 351.757812 576.054688 " transform="matrix(0.1,0,0,-0.1,0,190)"/>
<path style="fill-rule:nonzero;fill:rgb(59.959412%,19.993591%,100%);fill-opacity:1;stroke-width:10;stroke-linecap:butt;stroke-linejoin:miter;stroke:rgb(0%,0%,0%);stroke-opacity:1;stroke-miterlimit:10;" d="M 331.757812 556.054688 L 371.757812 556.054688 L 371.757812 596.054688 L 331.757812 596.054688 Z M 331.757812 556.054688 " transform="matrix(0.1,0,0,-0.1,0,190)"/>
<path style="fill-rule:nonzero;fill:rgb(59.959412%,19.993591%,100%);fill-opacity:1;stroke-width:10;stroke-linecap:butt;stroke-linejoin:miter;stroke:rgb(0%,0%,0%);stroke-opacity:1;stroke-miterlimit:10;" d="M 349.335938 408.710938 L 389.335938 408.710938 L 389.335938 448.710938 L 349.335938 448.710938 Z M 349.335938 408.710938 " transform="matrix(0.1,0,0,-0.1,0,190)"/>
<path style="fill:none;stroke-width:10;stroke-linecap:butt;stroke-linejoin:miter;stroke:rgb(59.959412%,19.993591%,80.076599%);stroke-opacity:1;stroke-miterlimit:10;" d="M 351.757812 576.054688 L 281.367188 576.054688 " transform="matrix(0.1,0,0,-0.1,0,190)"/>
<path style="fill-rule:nonzero;fill:rgb(59.959412%,19.993591%,100%);fill-opacity:1;stroke-width:10;stroke-linecap:butt;stroke-linejoin:miter;stroke:rgb(0%,0%,0%);stroke-opacity:1;stroke-miterlimit:10;" d="M 261.367188 556.054688 L 301.367188 556.054688 L 301.367188 596.054688 L 261.367188 596.054688 Z M 261.367188 556.054688 " transform="matrix(0.1,0,0,-0.1,0,190)"/>
<path style="fill-rule:nonzero;fill:rgb(59.959412%,19.993591%,100%);fill-opacity:1;stroke-width:10;stroke-linecap:butt;stroke-linejoin:miter;stroke:rgb(0%,0%,0%);stroke-opacity:1;stroke-miterlimit:10;" d="M 331.757812 556.054688 L 371.757812 556.054688 L 371.757812 596.054688 L 331.757812 596.054688 Z M 331.757812 556.054688 " transform="matrix(0.1,0,0,-0.1,0,190)"/>
<path style="fill:none;stroke-width:10;stroke-linecap:butt;stroke-linejoin:miter;stroke:rgb(59.959412%,59.959412%,59.959412%);stroke-opacity:1;stroke-miterlimit:10;" d="M 265.976562 239.570312 L 279.179688 331.953125 " transform="matrix(0.1,0,0,-0.1,0,190)"/>
<path style="fill:none;stroke-width:10;stroke-linecap:butt;stroke-linejoin:miter;stroke:rgb(59.959412%,59.959412%,59.959412%);stroke-opacity:1;stroke-miterlimit:10;" d="M 281.367188 393.515625 L 281.367188 576.054688 " transform="matrix(0.1,0,0,-0.1,0,190)"/>
<path style="fill:none;stroke-width:10;stroke-linecap:butt;stroke-linejoin:miter;stroke:rgb(80.076599%,19.993591%,100%);stroke-opacity:1;stroke-miterlimit:10;" d="M 281.367188 576.054688 C 281.367188 393.515625 279.179688 331.953125 265.976562 239.570312 " transform="matrix(0.1,0,0,-0.1,0,190)"/>
<path style="fill-rule:nonzero;fill:rgb(59.959412%,19.993591%,100%);fill-opacity:1;stroke-width:10;stroke-linecap:butt;stroke-linejoin:miter;stroke:rgb(0%,0%,0%);stroke-opacity:1;stroke-miterlimit:10;" d="M 245.976562 219.570312 L 285.976562 219.570312 L 285.976562 259.570312 L 245.976562 259.570312 Z M 245.976562 219.570312 " transform="matrix(0.1,0,0,-0.1,0,190)"/>
<path style="fill-rule:nonzero;fill:rgb(59.959412%,19.993591%,100%);fill-opacity:1;stroke-width:10;stroke-linecap:butt;stroke-linejoin:miter;stroke:rgb(0%,0%,0%);stroke-opacity:1;stroke-miterlimit:10;" d="M 259.179688 311.953125 L 299.179688 311.953125 L 299.179688 351.953125 L 259.179688 351.953125 Z M 259.179688 311.953125 " transform="matrix(0.1,0,0,-0.1,0,190)"/>
<path style="fill-rule:nonzero;fill:rgb(59.959412%,19.993591%,100%);fill-opacity:1;stroke-width:10;stroke-linecap:butt;stroke-linejoin:miter;stroke:rgb(0%,0%,0%);stroke-opacity:1;stroke-miterlimit:10;" d="M 261.367188 373.515625 L 301.367188 373.515625 L 301.367188 413.515625 L 261.367188 413.515625 Z M 261.367188 373.515625 " transform="matrix(0.1,0,0,-0.1,0,190)"/>
<path style="fill-rule:nonzero;fill:rgb(59.959412%,19.993591%,100%);fill-opacity:1;stroke-width:10;stroke-linecap:butt;stroke-linejoin:miter;stroke:rgb(0%,0%,0%);stroke-opacity:1;stroke-miterlimit:10;" d="M 261.367188 556.054688 L 301.367188 556.054688 L 301.367188 596.054688 L 261.367188 596.054688 Z M 261.367188 556.054688 " transform="matrix(0.1,0,0,-0.1,0,190)"/>
<path style="fill:none;stroke-width:10;stroke-linecap:butt;stroke-linejoin:miter;stroke:rgb(59.959412%,59.959412%,59.959412%);stroke-opacity:1;stroke-miterlimit:10;" d="M 646.445312 156.015625 L 516.679688 156.015625 " transform="matrix(0.1,0,0,-0.1,0,190)"/>
<path style="fill:none;stroke-width:10;stroke-linecap:butt;stroke-linejoin:miter;stroke:rgb(59.959412%,59.959412%,59.959412%);stroke-opacity:1;stroke-miterlimit:10;" d="M 391.328125 182.421875 L 265.976562 239.570312 " transform="matrix(0.1,0,0,-0.1,0,190)"/>
<path style="fill:none;stroke-width:10;stroke-linecap:butt;stroke-linejoin:miter;stroke:rgb(80.076599%,19.993591%,100%);stroke-opacity:1;stroke-miterlimit:10;" d="M 265.976562 239.570312 C 391.328125 182.421875 516.679688 156.015625 646.445312 156.015625 " transform="matrix(0.1,0,0,-0.1,0,190)"/>
<path style="fill-rule:nonzero;fill:rgb(59.959412%,19.993591%,100%);fill-opacity:1;stroke-width:10;stroke-linecap:butt;stroke-linejoin:miter;stroke:rgb(0%,0%,0%);stroke-opacity:1;stroke-miterlimit:10;" d="M 626.445312 136.015625 L 666.445312 136.015625 L 666.445312 176.015625 L 626.445312 176.015625 Z M 626.445312 136.015625 " transform="matrix(0.1,0,0,-0.1,0,190)"/>
<path style="fill-rule:nonzero;fill:rgb(59.959412%,19.993591%,100%);fill-opacity:1;stroke-width:10;stroke-linecap:butt;stroke-linejoin:miter;stroke:rgb(0%,0%,0%);stroke-opacity:1;stroke-miterlimit:10;" d="M 496.679688 136.015625 L 536.679688 136.015625 L 536.679688 176.015625 L 496.679688 176.015625 Z M 496.679688 136.015625 " transform="matrix(0.1,0,0,-0.1,0,190)"/>
<path style="fill-rule:nonzero;fill:rgb(59.959412%,19.993591%,100%);fill-opacity:1;stroke-width:10;stroke-linecap:butt;stroke-linejoin:miter;stroke:rgb(0%,0%,0%);stroke-opacity:1;stroke-miterlimit:10;" d="M 371.328125 162.421875 L 411.328125 162.421875 L 411.328125 202.421875 L 371.328125 202.421875 Z M 371.328125 162.421875 " transform="matrix(0.1,0,0,-0.1,0,190)"/>
<path style="fill-rule:nonzero;fill:rgb(59.959412%,19.993591%,100%);fill-opacity:1;stroke-width:10;stroke-linecap:butt;stroke-linejoin:miter;stroke:rgb(0%,0%,0%);stroke-opacity:1;stroke-miterlimit:10;" d="M 245.976562 219.570312 L 285.976562 219.570312 L 285.976562 259.570312 L 245.976562 259.570312 Z M 245.976562 219.570312 " transform="matrix(0.1,0,0,-0.1,0,190)"/>
<path style="fill:none;stroke-width:10;stroke-linecap:butt;stroke-linejoin:miter;stroke:rgb(59.959412%,59.959412%,59.959412%);stroke-opacity:1;stroke-miterlimit:10;" d="M 1306.171875 705.820312 L 1306.171875 386.914062 " transform="matrix(0.1,0,0,-0.1,0,190)"/>
<path style="fill:none;stroke-width:10;stroke-linecap:butt;stroke-linejoin:miter;stroke:rgb(59.959412%,59.959412%,59.959412%);stroke-opacity:1;stroke-miterlimit:10;" d="M 1029.101562 156.015625 L 646.445312 156.015625 " transform="matrix(0.1,0,0,-0.1,0,190)"/>
<path style="fill:none;stroke-width:10;stroke-linecap:butt;stroke-linejoin:miter;stroke:rgb(80.076599%,19.993591%,100%);stroke-opacity:1;stroke-miterlimit:10;" d="M 646.445312 156.015625 C 1029.101562 156.015625 1306.171875 386.914062 1306.171875 705.820312 " transform="matrix(0.1,0,0,-0.1,0,190)"/>
<path style="fill-rule:nonzero;fill:rgb(59.959412%,19.993591%,100%);fill-opacity:1;stroke-width:10;stroke-linecap:butt;stroke-linejoin:miter;stroke:rgb(0%,0%,0%);stroke-opacity:1;stroke-miterlimit:10;" d="M 1286.171875 685.820312 L 1326.171875 685.820312 L 1326.171875 725.820312 L 1286.171875 725.820312 Z M 1286.171875 685.820312 " transform="matrix(0.1,0,0,-0.1,0,190)"/>
<path style="fill-rule:nonzero;fill:rgb(59.959412%,19.993591%,100%);fill-opacity:1;stroke-width:10;stroke-linecap:butt;stroke-linejoin:miter;stroke:rgb(0%,0%,0%);stroke-opacity:1;stroke-miterlimit:10;" d="M 1286.171875 366.914062 L 1326.171875 366.914062 L 1326.171875 406.914062 L 1286.171875 406.914062 Z M 1286.171875 366.914062 " transform="matrix(0.1,0,0,-0.1,0,190)"/>
<path style="fill-rule:nonzero;fill:rgb(59.959412%,19.993591%,100%);fill-opacity:1;stroke-width:10;stroke-linecap:butt;stroke-linejoin:miter;stroke:rgb(0%,0%,0%);stroke-opacity:1;stroke-miterlimit:10;" d="M 1009.101562 136.015625 L 1049.101562 136.015625 L 1049.101562 176.015625 L 1009.101562 176.015625 Z M 1009.101562 136.015625 " transform="matrix(0.1,0,0,-0.1,0,190)"/>
<path style="fill-rule:nonzero;fill:rgb(59.959412%,19.993591%,100%);fill-opacity:1;stroke-width:10;stroke-linecap:butt;stroke-linejoin:miter;stroke:rgb(0%,0%,0%);stroke-opacity:1;stroke-miterlimit:10;" d="M 626.445312 136.015625 L 666.445312 136.015625 L 666.445312 176.015625 L 626.445312 176.015625 Z M 626.445312 136.015625 " transform="matrix(0.1,0,0,-0.1,0,190)"/>
<path style="fill:none;stroke-width:10;stroke-linecap:butt;stroke-linejoin:miter;stroke:rgb(59.959412%,59.959412%,59.959412%);stroke-opacity:1;stroke-miterlimit:10;" d="M 1220.429688 936.71875 L 1279.804688 877.34375 " transform="matrix(0.1,0,0,-0.1,0,190)"/>
<path style="fill:none;stroke-width:10;stroke-linecap:butt;stroke-linejoin:miter;stroke:rgb(59.959412%,59.959412%,59.959412%);stroke-opacity:1;stroke-miterlimit:10;" d="M 1306.171875 809.179688 L 1306.171875 705.820312 " transform="matrix(0.1,0,0,-0.1,0,190)"/>
<path style="fill:none;stroke-width:10;stroke-linecap:butt;stroke-linejoin:miter;stroke:rgb(80.076599%,19.993591%,100%);stroke-opacity:1;stroke-miterlimit:10;" d="M 1306.171875 705.820312 C 1306.171875 809.179688 1279.804688 877.34375 1220.429688 936.71875 " transform="matrix(0.1,0,0,-0.1,0,190)"/>
<path style="fill-rule:nonzero;fill:rgb(59.959412%,19.993591%,100%);fill-opacity:1;stroke-width:10;stroke-linecap:butt;stroke-linejoin:miter;stroke:rgb(0%,0%,0%);stroke-opacity:1;stroke-miterlimit:10;" d="M 1200.429688 916.71875 L 1240.429688 916.71875 L 1240.429688 956.71875 L 1200.429688 956.71875 Z M 1200.429688 916.71875 " transform="matrix(0.1,0,0,-0.1,0,190)"/>
<path style="fill-rule:nonzero;fill:rgb(59.959412%,19.993591%,100%);fill-opacity:1;stroke-width:10;stroke-linecap:butt;stroke-linejoin:miter;stroke:rgb(0%,0%,0%);stroke-opacity:1;stroke-miterlimit:10;" d="M 1259.804688 857.34375 L 1299.804688 857.34375 L 1299.804688 897.34375 L 1259.804688 897.34375 Z M 1259.804688 857.34375 " transform="matrix(0.1,0,0,-0.1,0,190)"/>
<path style="fill-rule:nonzero;fill:rgb(59.959412%,19.993591%,100%);fill-opacity:1;stroke-width:10;stroke-linecap:butt;stroke-linejoin:miter;stroke:rgb(0%,0%,0%);stroke-opacity:1;stroke-miterlimit:10;" d="M 1286.171875 789.179688 L 1326.171875 789.179688 L 1326.171875 829.179688 L 1286.171875 829.179688 Z M 1286.171875 789.179688 " transform="matrix(0.1,0,0,-0.1,0,190)"/>
<path style="fill-rule:nonzero;fill:rgb(59.959412%,19.993591%,100%);fill-opacity:1;stroke-width:10;stroke-linecap:butt;stroke-linejoin:miter;stroke:rgb(0%,0%,0%);stroke-opacity:1;stroke-miterlimit:10;" d="M 1286.171875 685.820312 L 1326.171875 685.820312 L 1326.171875 725.820312 L 1286.171875 725.820312 Z M 1286.171875 685.820312 " transform="matrix(0.1,0,0,-0.1,0,190)"/>
<path style="fill:none;stroke-width:10;stroke-linecap:butt;stroke-linejoin:miter;stroke:rgb(59.959412%,59.959412%,59.959412%);stroke-opacity:1;stroke-miterlimit:10;" d="M 800.390625 1073.085938 L 1051.09375 1040.078125 " transform="matrix(0.1,0,0,-0.1,0,190)"/>
<path style="fill:none;stroke-width:10;stroke-linecap:butt;stroke-linejoin:miter;stroke:rgb(59.959412%,59.959412%,59.959412%);stroke-opacity:1;stroke-miterlimit:10;" d="M 1143.4375 1009.296875 L 1220.429688 936.71875 " transform="matrix(0.1,0,0,-0.1,0,190)"/>
<path style="fill:none;stroke-width:10;stroke-linecap:butt;stroke-linejoin:miter;stroke:rgb(80.076599%,19.993591%,100%);stroke-opacity:1;stroke-miterlimit:10;" d="M 1220.429688 936.71875 C 1143.4375 1009.296875 1051.09375 1040.078125 800.390625 1073.085938 " transform="matrix(0.1,0,0,-0.1,0,190)"/>
<path style="fill-rule:nonzero;fill:rgb(59.959412%,19.993591%,100%);fill-opacity:1;stroke-width:10;stroke-linecap:butt;stroke-linejoin:miter;stroke:rgb(0%,0%,0%);stroke-opacity:1;stroke-miterlimit:10;" d="M 780.390625 1053.085938 L 820.390625 1053.085938 L 820.390625 1093.085938 L 780.390625 1093.085938 Z M 780.390625 1053.085938 " transform="matrix(0.1,0,0,-0.1,0,190)"/>
<path style="fill-rule:nonzero;fill:rgb(59.959412%,19.993591%,100%);fill-opacity:1;stroke-width:10;stroke-linecap:butt;stroke-linejoin:miter;stroke:rgb(0%,0%,0%);stroke-opacity:1;stroke-miterlimit:10;" d="M 1031.09375 1020.078125 L 1071.09375 1020.078125 L 1071.09375 1060.078125 L 1031.09375 1060.078125 Z M 1031.09375 1020.078125 " transform="matrix(0.1,0,0,-0.1,0,190)"/>
<path style="fill-rule:nonzero;fill:rgb(59.959412%,19.993591%,100%);fill-opacity:1;stroke-width:10;stroke-linecap:butt;stroke-linejoin:miter;stroke:rgb(0%,0%,0%);stroke-opacity:1;stroke-miterlimit:10;" d="M 1123.4375 989.296875 L 1163.4375 989.296875 L 1163.4375 1029.296875 L 1123.4375 1029.296875 Z M 1123.4375 989.296875 " transform="matrix(0.1,0,0,-0.1,0,190)"/>
<path style="fill-rule:nonzero;fill:rgb(59.959412%,19.993591%,100%);fill-opacity:1;stroke-width:10;stroke-linecap:butt;stroke-linejoin:miter;stroke:rgb(0%,0%,0%);stroke-opacity:1;stroke-miterlimit:10;" d="M 1200.429688 916.71875 L 1240.429688 916.71875 L 1240.429688 956.71875 L 1200.429688 956.71875 Z M 1200.429688 916.71875 " transform="matrix(0.1,0,0,-0.1,0,190)"/>
<path style="fill:none;stroke-width:10;stroke-linecap:butt;stroke-linejoin:miter;stroke:rgb(59.959412%,59.959412%,59.959412%);stroke-opacity:1;stroke-miterlimit:10;" d="M 437.5 1350.15625 L 437.5 1180.820312 " transform="matrix(0.1,0,0,-0.1,0,190)"/>
<path style="fill:none;stroke-width:10;stroke-linecap:butt;stroke-linejoin:miter;stroke:rgb(59.959412%,59.959412%,59.959412%);stroke-opacity:1;stroke-miterlimit:10;" d="M 532.070312 1108.242188 L 800.390625 1073.085938 " transform="matrix(0.1,0,0,-0.1,0,190)"/>
<path style="fill:none;stroke-width:10;stroke-linecap:butt;stroke-linejoin:miter;stroke:rgb(80.076599%,19.993591%,100%);stroke-opacity:1;stroke-miterlimit:10;" d="M 800.390625 1073.085938 C 532.070312 1108.242188 437.5 1180.820312 437.5 1350.15625 " transform="matrix(0.1,0,0,-0.1,0,190)"/>
<path style="fill-rule:nonzero;fill:rgb(59.959412%,19.993591%,100%);fill-opacity:1;stroke-width:10;stroke-linecap:butt;stroke-linejoin:miter;stroke:rgb(0%,0%,0%);stroke-opacity:1;stroke-miterlimit:10;" d="M 417.5 1330.15625 L 457.5 1330.15625 L 457.5 1370.15625 L 417.5 1370.15625 Z M 417.5 1330.15625 " transform="matrix(0.1,0,0,-0.1,0,190)"/>
<path style="fill-rule:nonzero;fill:rgb(59.959412%,19.993591%,100%);fill-opacity:1;stroke-width:10;stroke-linecap:butt;stroke-linejoin:miter;stroke:rgb(0%,0%,0%);stroke-opacity:1;stroke-miterlimit:10;" d="M 417.5 1160.820312 L 457.5 1160.820312 L 457.5 1200.820312 L 417.5 1200.820312 Z M 417.5 1160.820312 " transform="matrix(0.1,0,0,-0.1,0,190)"/>
<path style="fill-rule:nonzero;fill:rgb(59.959412%,19.993591%,100%);fill-opacity:1;stroke-width:10;stroke-linecap:butt;stroke-linejoin:miter;stroke:rgb(0%,0%,0%);stroke-opacity:1;stroke-miterlimit:10;" d="M 512.070312 1088.242188 L 552.070312 1088.242188 L 552.070312 1128.242188 L 512.070312 1128.242188 Z M 512.070312 1088.242188 " transform="matrix(0.1,0,0,-0.1,0,190)"/>
<path style="fill-rule:nonzero;fill:rgb(59.959412%,19.993591%,100%);fill-opacity:1;stroke-width:10;stroke-linecap:butt;stroke-linejoin:miter;stroke:rgb(0%,0%,0%);stroke-opacity:1;stroke-miterlimit:10;" d="M 780.390625 1053.085938 L 820.390625 1053.085938 L 820.390625 1093.085938 L 780.390625 1093.085938 Z M 780.390625 1053.085938 " transform="matrix(0.1,0,0,-0.1,0,190)"/>
<path style="fill:none;stroke-width:10;stroke-linecap:butt;stroke-linejoin:miter;stroke:rgb(59.959412%,59.959412%,59.959412%);stroke-opacity:1;stroke-miterlimit:10;" d="M 769.570312 1666.835938 L 576.054688 1666.835938 " transform="matrix(0.1,0,0,-0.1,0,190)"/>
<path style="fill:none;stroke-width:10;stroke-linecap:butt;stroke-linejoin:miter;stroke:rgb(59.959412%,59.959412%,59.959412%);stroke-opacity:1;stroke-miterlimit:10;" d="M 437.5 1534.882812 L 437.5 1350.15625 " transform="matrix(0.1,0,0,-0.1,0,190)"/>
<path style="fill:none;stroke-width:10;stroke-linecap:butt;stroke-linejoin:miter;stroke:rgb(80.076599%,19.993591%,100%);stroke-opacity:1;stroke-miterlimit:10;" d="M 437.5 1350.15625 C 437.5 1534.882812 576.054688 1666.835938 769.570312 1666.835938 " transform="matrix(0.1,0,0,-0.1,0,190)"/>
<path style="fill-rule:nonzero;fill:rgb(59.959412%,19.993591%,100%);fill-opacity:1;stroke-width:10;stroke-linecap:butt;stroke-linejoin:miter;stroke:rgb(0%,0%,0%);stroke-opacity:1;stroke-miterlimit:10;" d="M 749.570312 1646.835938 L 789.570312 1646.835938 L 789.570312 1686.835938 L 749.570312 1686.835938 Z M 749.570312 1646.835938 " transform="matrix(0.1,0,0,-0.1,0,190)"/>
<path style="fill-rule:nonzero;fill:rgb(59.959412%,19.993591%,100%);fill-opacity:1;stroke-width:10;stroke-linecap:butt;stroke-linejoin:miter;stroke:rgb(0%,0%,0%);stroke-opacity:1;stroke-miterlimit:10;" d="M 556.054688 1646.835938 L 596.054688 1646.835938 L 596.054688 1686.835938 L 556.054688 1686.835938 Z M 556.054688 1646.835938 " transform="matrix(0.1,0,0,-0.1,0,190)"/>
<path style="fill-rule:nonzero;fill:rgb(59.959412%,19.993591%,100%);fill-opacity:1;stroke-width:10;stroke-linecap:butt;stroke-linejoin:miter;stroke:rgb(0%,0%,0%);stroke-opacity:1;stroke-miterlimit:10;" d="M 417.5 1514.882812 L 457.5 1514.882812 L 457.5 1554.882812 L 417.5 1554.882812 Z M 417.5 1514.882812 " transform="matrix(0.1,0,0,-0.1,0,190)"/>
<path style="fill-rule:nonzero;fill:rgb(59.959412%,19.993591%,100%);fill-opacity:1;stroke-width:10;stroke-linecap:butt;stroke-linejoin:miter;stroke:rgb(0%,0%,0%);stroke-opacity:1;stroke-miterlimit:10;" d="M 417.5 1330.15625 L 457.5 1330.15625 L 457.5 1370.15625 L 417.5 1370.15625 Z M 417.5 1330.15625 " transform="matrix(0.1,0,0,-0.1,0,190)"/>
<path style="fill:none;stroke-width:10;stroke-linecap:butt;stroke-linejoin:miter;stroke:rgb(59.959412%,59.959412%,59.959412%);stroke-opacity:1;stroke-miterlimit:10;" d="M 996.09375 1616.289062 L 936.71875 1649.257812 " transform="matrix(0.1,0,0,-0.1,0,190)"/>
<path style="fill:none;stroke-width:10;stroke-linecap:butt;stroke-linejoin:miter;stroke:rgb(59.959412%,59.959412%,59.959412%);stroke-opacity:1;stroke-miterlimit:10;" d="M 857.539062 1666.835938 L 769.570312 1666.835938 " transform="matrix(0.1,0,0,-0.1,0,190)"/>
<path style="fill:none;stroke-width:10;stroke-linecap:butt;stroke-linejoin:miter;stroke:rgb(80.076599%,19.993591%,100%);stroke-opacity:1;stroke-miterlimit:10;" d="M 769.570312 1666.835938 C 857.539062 1666.835938 936.71875 1649.257812 996.09375 1616.289062 " transform="matrix(0.1,0,0,-0.1,0,190)"/>
<path style="fill-rule:nonzero;fill:rgb(59.959412%,19.993591%,100%);fill-opacity:1;stroke-width:10;stroke-linecap:butt;stroke-linejoin:miter;stroke:rgb(0%,0%,0%);stroke-opacity:1;stroke-miterlimit:10;" d="M 976.09375 1596.289062 L 1016.09375 1596.289062 L 1016.09375 1636.289062 L 976.09375 1636.289062 Z M 976.09375 1596.289062 " transform="matrix(0.1,0,0,-0.1,0,190)"/>
<path style="fill-rule:nonzero;fill:rgb(59.959412%,19.993591%,100%);fill-opacity:1;stroke-width:10;stroke-linecap:butt;stroke-linejoin:miter;stroke:rgb(0%,0%,0%);stroke-opacity:1;stroke-miterlimit:10;" d="M 916.71875 1629.257812 L 956.71875 1629.257812 L 956.71875 1669.257812 L 916.71875 1669.257812 Z M 916.71875 1629.257812 " transform="matrix(0.1,0,0,-0.1,0,190)"/>
<path style="fill-rule:nonzero;fill:rgb(59.959412%,19.993591%,100%);fill-opacity:1;stroke-width:10;stroke-linecap:butt;stroke-linejoin:miter;stroke:rgb(0%,0%,0%);stroke-opacity:1;stroke-miterlimit:10;" d="M 837.539062 1646.835938 L 877.539062 1646.835938 L 877.539062 1686.835938 L 837.539062 1686.835938 Z M 837.539062 1646.835938 " transform="matrix(0.1,0,0,-0.1,0,190)"/>
<path style="fill-rule:nonzero;fill:rgb(59.959412%,19.993591%,100%);fill-opacity:1;stroke-width:10;stroke-linecap:butt;stroke-linejoin:miter;stroke:rgb(0%,0%,0%);stroke-opacity:1;stroke-miterlimit:10;" d="M 749.570312 1646.835938 L 789.570312 1646.835938 L 789.570312 1686.835938 L 749.570312 1686.835938 Z M 749.570312 1646.835938 " transform="matrix(0.1,0,0,-0.1,0,190)"/>
<path style="fill:none;stroke-width:10;stroke-linecap:butt;stroke-linejoin:miter;stroke:rgb(59.959412%,59.959412%,59.959412%);stroke-opacity:1;stroke-miterlimit:10;" d="M 1099.453125 1482.109375 L 1092.851562 1545.898438 " transform="matrix(0.1,0,0,-0.1,0,190)"/>
<path style="fill:none;stroke-width:10;stroke-linecap:butt;stroke-linejoin:miter;stroke:rgb(59.959412%,59.959412%,59.959412%);stroke-opacity:1;stroke-miterlimit:10;" d="M 1068.671875 1578.867188 L 996.09375 1616.289062 " transform="matrix(0.1,0,0,-0.1,0,190)"/>
<path style="fill:none;stroke-width:10;stroke-linecap:butt;stroke-linejoin:miter;stroke:rgb(80.076599%,19.993591%,100%);stroke-opacity:1;stroke-miterlimit:10;" d="M 996.09375 1616.289062 C 1068.671875 1578.867188 1092.851562 1545.898438 1099.453125 1482.109375 " transform="matrix(0.1,0,0,-0.1,0,190)"/>
<path style="fill-rule:nonzero;fill:rgb(59.959412%,19.993591%,100%);fill-opacity:1;stroke-width:10;stroke-linecap:butt;stroke-linejoin:miter;stroke:rgb(0%,0%,0%);stroke-opacity:1;stroke-miterlimit:10;" d="M 1079.453125 1462.109375 L 1119.453125 1462.109375 L 1119.453125 1502.109375 L 1079.453125 1502.109375 Z M 1079.453125 1462.109375 " transform="matrix(0.1,0,0,-0.1,0,190)"/>
<path style="fill-rule:nonzero;fill:rgb(59.959412%,19.993591%,100%);fill-opacity:1;stroke-width:10;stroke-linecap:butt;stroke-linejoin:miter;stroke:rgb(0%,0%,0%);stroke-opacity:1;stroke-miterlimit:10;" d="M 1072.851562 1525.898438 L 1112.851562 1525.898438 L 1112.851562 1565.898438 L 1072.851562 1565.898438 Z M 1072.851562 1525.898438 " transform="matrix(0.1,0,0,-0.1,0,190)"/>
<path style="fill-rule:nonzero;fill:rgb(59.959412%,19.993591%,100%);fill-opacity:1;stroke-width:10;stroke-linecap:butt;stroke-linejoin:miter;stroke:rgb(0%,0%,0%);stroke-opacity:1;stroke-miterlimit:10;" d="M 1048.671875 1558.867188 L 1088.671875 1558.867188 L 1088.671875 1598.867188 L 1048.671875 1598.867188 Z M 1048.671875 1558.867188 " transform="matrix(0.1,0,0,-0.1,0,190)"/>
<path style="fill-rule:nonzero;fill:rgb(59.959412%,19.993591%,100%);fill-opacity:1;stroke-width:10;stroke-linecap:butt;stroke-linejoin:miter;stroke:rgb(0%,0%,0%);stroke-opacity:1;stroke-miterlimit:10;" d="M 976.09375 1596.289062 L 1016.09375 1596.289062 L 1016.09375 1636.289062 L 976.09375 1636.289062 Z M 976.09375 1596.289062 " transform="matrix(0.1,0,0,-0.1,0,190)"/>
<path style="fill:none;stroke-width:10;stroke-linecap:butt;stroke-linejoin:miter;stroke:rgb(59.959412%,19.993591%,80.076599%);stroke-opacity:1;stroke-miterlimit:10;" d="M 1099.453125 1482.109375 L 1112.65625 1356.757812 " transform="matrix(0.1,0,0,-0.1,0,190)"/>
<path style="fill-rule:nonzero;fill:rgb(59.959412%,19.993591%,100%);fill-opacity:1;stroke-width:10;stroke-linecap:butt;stroke-linejoin:miter;stroke:rgb(0%,0%,0%);stroke-opacity:1;stroke-miterlimit:10;" d="M 1092.65625 1336.757812 L 1132.65625 1336.757812 L 1132.65625 1376.757812 L 1092.65625 1376.757812 Z M 1092.65625 1336.757812 " transform="matrix(0.1,0,0,-0.1,0,190)"/>
<path style="fill-rule:nonzero;fill:rgb(59.959412%,19.993591%,100%);fill-opacity:1;stroke-width:10;stroke-linecap:butt;stroke-linejoin:miter;stroke:rgb(0%,0%,0%);stroke-opacity:1;stroke-miterlimit:10;" d="M 1079.453125 1462.109375 L 1119.453125 1462.109375 L 1119.453125 1502.109375 L 1079.453125 1502.109375 Z M 1079.453125 1462.109375 " transform="matrix(0.1,0,0,-0.1,0,190)"/>
<path style="fill:none;stroke-width:10;stroke-linecap:butt;stroke-linejoin:miter;stroke:rgb(59.959412%,19.993591%,80.076599%);stroke-opacity:1;stroke-miterlimit:10;" d="M 1112.65625 1356.757812 L 1183.046875 1356.757812 " transform="matrix(0.1,0,0,-0.1,0,190)"/>
<path style="fill-rule:nonzero;fill:rgb(59.959412%,19.993591%,100%);fill-opacity:1;stroke-width:10;stroke-linecap:butt;stroke-linejoin:miter;stroke:rgb(0%,0%,0%);stroke-opacity:1;stroke-miterlimit:10;" d="M 1163.046875 1336.757812 L 1203.046875 1336.757812 L 1203.046875 1376.757812 L 1163.046875 1376.757812 Z M 1163.046875 1336.757812 " transform="matrix(0.1,0,0,-0.1,0,190)"/>
<path style="fill-rule:nonzero;fill:rgb(59.959412%,19.993591%,100%);fill-opacity:1;stroke-width:10;stroke-linecap:butt;stroke-linejoin:miter;stroke:rgb(0%,0%,0%);stroke-opacity:1;stroke-miterlimit:10;" d="M 1092.65625 1336.757812 L 1132.65625 1336.757812 L 1132.65625 1376.757812 L 1092.65625 1376.757812 Z M 1092.65625 1336.757812 " transform="matrix(0.1,0,0,-0.1,0,190)"/>
<path style="fill:none;stroke-width:10;stroke-linecap:butt;stroke-linejoin:miter;stroke:rgb(59.959412%,19.993591%,80.076599%);stroke-opacity:1;stroke-miterlimit:10;" d="M 1183.046875 1356.757812 L 1183.046875 1356.757812 " transform="matrix(0.1,0,0,-0.1,0,190)"/>
<path style="fill-rule:nonzero;fill:rgb(59.959412%,19.993591%,100%);fill-opacity:1;stroke-width:10;stroke-linecap:butt;stroke-linejoin:miter;stroke:rgb(0%,0%,0%);stroke-opacity:1;stroke-miterlimit:10;" d="M 1163.046875 1336.757812 L 1203.046875 1336.757812 L 1203.046875 1376.757812 L 1163.046875 1376.757812 Z M 1163.046875 1336.757812 " transform="matrix(0.1,0,0,-0.1,0,190)"/>
<path style="fill-rule:nonzero;fill:rgb(59.959412%,19.993591%,100%);fill-opacity:1;stroke-width:10;stroke-linecap:butt;stroke-linejoin:miter;stroke:rgb(0%,0%,0%);stroke-opacity:1;stroke-miterlimit:10;" d="M 1163.046875 1336.757812 L 1203.046875 1336.757812 L 1203.046875 1376.757812 L 1163.046875 1376.757812 Z M 1163.046875 1336.757812 " transform="matrix(0.1,0,0,-0.1,0,190)"/>
</g>
</svg>
