<?xml version="1.0" encoding="UTF-8"?>
<svg xmlns="http://www.w3.org/2000/svg" xmlns:xlink="http://www.w3.org/1999/xlink" width="150pt" height="150pt" viewBox="0 0 150 150" version="1.1">
<defs>
<clipPath id="clip1">
  <path d="M 5 38 L 145 38 L 145 103 L 5 103 Z M 5 38 "/>
</clipPath>
</defs>
<g id="surface1">
<path style="fill:none;stroke-width:10;stroke-linecap:butt;stroke-linejoin:miter;stroke:rgb(0%,0%,0%);stroke-opacity:1;stroke-miterlimit:10;" d="M 50 750 L 1450 750 M 750 50 L 750 1450 " transform="matrix(0.1,0,0,-0.1,0,150)"/>
<path style="fill:none;stroke-width:10;stroke-linecap:butt;stroke-linejoin:miter;stroke:rgb(80.076599%,80.076599%,80.076599%);stroke-opacity:1;stroke-miterlimit:10;" d="M 50 50 L 1450 50 L 1450 1450 L 50 1450 Z M 50 50 " transform="matrix(0.1,0,0,-0.1,0,150)"/>
<g clip-path="url(#clip1)" clip-rule="nonzero">
<path style="fill:none;stroke-width:15;stroke-linecap:butt;stroke-linejoin:miter;stroke:rgb(0%,0%,50%);stroke-opacity:1;stroke-miterlimit:10;" d="M 50 906.796875 L 63.984375 896.71875 L 78.007812 887.148438 L 91.992188 878.007812 L 106.015625 869.296875 L 120 861.054688 L 133.984375 853.203125 L 148.007812 845.742188 L 161.992188 838.671875 L 176.015625 831.992188 L 190 825.703125 L 203.984375 819.726562 L 218.007812 814.101562 L 231.992188 808.828125 L 246.015625 803.828125 L 260 799.179688 L 273.984375 794.804688 L 288.007812 790.703125 L 301.992188 786.875 L 316.015625 783.320312 L 330 780 L 343.984375 776.914062 L 358.007812 774.0625 L 371.992188 771.445312 L 386.015625 769.023438 L 400 766.796875 L 413.984375 764.765625 L 428.007812 762.890625 L 441.992188 761.210938 L 456.015625 759.6875 L 470 758.320312 L 483.984375 757.070312 L 498.007812 755.976562 L 511.992188 755 L 526.015625 754.140625 L 540 753.398438 L 553.984375 752.734375 L 568.007812 752.1875 L 581.992188 751.679688 L 596.015625 751.289062 L 610 750.976562 L 623.984375 750.703125 L 638.007812 750.46875 L 651.992188 750.3125 L 666.015625 750.195312 L 680 750.117188 L 693.984375 750.078125 L 708.007812 750.039062 L 721.992188 750 L 778.007812 750 L 791.992188 749.960938 L 806.015625 749.960938 L 833.984375 749.804688 L 848.007812 749.726562 L 861.992188 749.570312 L 876.015625 749.414062 L 890 749.179688 L 903.984375 748.90625 L 918.007812 748.59375 L 931.992188 748.242188 L 946.015625 747.8125 L 960 747.34375 L 973.984375 746.796875 L 988.007812 746.210938 L 1001.992188 745.507812 L 1016.015625 744.804688 L 1030 743.984375 L 1043.984375 743.085938 L 1058.007812 742.148438 L 1071.992188 741.09375 L 1086.015625 740 L 1100 738.789062 L 1113.984375 737.539062 L 1128.007812 736.171875 L 1141.992188 734.726562 L 1156.015625 733.203125 L 1170 731.601562 L 1183.984375 729.921875 L 1198.007812 728.164062 L 1211.992188 726.289062 L 1226.015625 724.375 L 1240 722.34375 L 1253.984375 720.234375 L 1268.007812 718.046875 L 1281.992188 715.78125 L 1296.015625 713.4375 L 1310 711.015625 L 1323.984375 708.515625 L 1338.007812 705.9375 L 1351.992188 703.28125 L 1366.015625 700.546875 L 1380 697.734375 L 1393.984375 694.882812 L 1408.007812 691.953125 L 1421.992188 688.945312 L 1436.015625 685.898438 L 1450 682.8125 " transform="matrix(0.1,0,0,-0.1,0,150)"/>
</g>
<path style=" stroke:none;fill-rule:nonzero;fill:rgb(100%,0%,0%);fill-opacity:1;" d="M 77 75 C 77 73.894531 76.105469 73 75 73 C 73.894531 73 73 73.894531 73 75 C 73 76.105469 73.894531 77 75 77 C 76.105469 77 77 76.105469 77 75 "/>
<path style="fill:none;stroke-width:10;stroke-linecap:butt;stroke-linejoin:miter;stroke:rgb(0%,0%,0%);stroke-opacity:1;stroke-miterlimit:10;" d="M 770 750 C 770 761.054688 761.054688 770 750 770 C 738.945312 770 730 761.054688 730 750 C 730 738.945312 738.945312 730 750 730 C 761.054688 730 770 738.945312 770 750 Z M 770 750 " transform="matrix(0.1,0,0,-0.1,0,150)"/>
</g>
</svg>
